<svg width="512" height="512" viewBox="0 0 512 512" fill="none" xmlns="http://www.w3.org/2000/svg">
<path d="M383.589 273.345H427.994C431.252 273.345 434.178 271.817 436.022 269.152C438.282 265.887 438.576 261.355 436.831 256.719L436.466 255.752L435.859 254.915C435.792 254.822 429.033 245.513 422.092 236.326C417.985 230.888 414.606 226.541 412.049 223.404C407.316 217.596 404.853 214.804 400.636 214.804H383.589C379.633 214.804 376.028 217.2 373.947 221.213C372.614 223.783 371.91 226.889 371.91 230.195V257.954C371.91 261.26 372.614 264.366 373.947 266.935C376.028 270.949 379.632 273.345 383.589 273.345ZM387.27 257.954V230.195C387.27 230.185 387.27 230.174 387.27 230.164H397.689C401.471 234.473 410.503 246.322 419.08 257.985H387.27C387.27 257.975 387.27 257.964 387.27 257.954ZM63.4352 200.032L99.0747 200.032C103.316 200.032 106.755 196.594 106.755 192.352C106.755 188.111 103.316 184.672 99.0747 184.672L63.4352 184.672C59.194 184.672 55.7552 188.11 55.7552 192.352C55.7552 196.593 59.1936 200.032 63.4352 200.032ZM106.755 232.955C106.755 228.713 103.316 225.275 99.0747 225.275L29.0452 225.275C24.804 225.275 21.3652 228.713 21.3652 232.955C21.3652 237.196 24.8036 240.635 29.0452 240.635L99.0747 240.635C103.316 240.635 106.755 237.196 106.755 232.955ZM106.755 273.558C106.755 269.317 103.316 265.878 99.0747 265.878L63.4352 265.878C59.194 265.878 55.7552 269.316 55.7552 273.558C55.7552 277.799 59.1936 281.238 63.4352 281.238L99.0747 281.238C103.316 281.238 106.755 277.8 106.755 273.558Z" fill="black"/>
<path d="M185.448 347.483C191.405 347.483 196.234 342.654 196.234 336.697C196.234 330.741 191.405 325.912 185.448 325.912C179.491 325.912 174.662 330.741 174.662 336.697C174.662 342.654 179.491 347.483 185.448 347.483Z" fill="black"/>
<path d="M409.84 347.483C415.797 347.483 420.626 342.654 420.626 336.697C420.626 330.74 415.797 325.911 409.84 325.911C403.884 325.911 399.055 330.74 399.055 336.697C399.055 342.654 403.884 347.483 409.84 347.483Z" fill="black"/>
<path d="M483.527 310.887C479.861 308.274 475.163 306.798 470.248 306.699V255.432C470.248 251.963 468.751 247.534 466.607 244.66L424.453 188.155C421.851 184.667 416.805 182.231 412.183 182.231H359.081V156.078C359.081 149.435 353.842 144.03 347.402 144.03H126.666C120.226 144.03 114.987 149.435 114.987 156.078V306.699C110.073 306.798 105.375 308.273 101.708 310.887C97.1906 314.108 94.5996 318.816 94.5996 323.803V327.264C94.5996 332.252 97.1907 336.959 101.708 340.18C105.505 342.887 110.407 344.377 115.512 344.377H155.131C158.563 357.92 170.854 367.97 185.449 367.97C200.044 367.97 212.335 357.92 215.767 344.377H379.522C382.955 357.92 395.246 367.97 409.841 367.97C424.436 367.97 436.726 357.92 440.159 344.377H469.724C474.828 344.377 479.73 342.887 483.527 340.18C488.045 336.959 490.636 332.252 490.636 327.264V323.803C490.636 318.816 488.045 314.108 483.527 310.887ZM412.064 197.591C412.166 197.615 412.312 197.67 412.43 197.727L454.28 253.824C454.51 254.175 454.833 255.079 454.888 255.517V306.69H433.558H418.651C415.855 305.868 412.899 305.424 409.841 305.424C406.782 305.424 403.826 305.868 401.03 306.69H386.75L359.081 306.642V197.591L412.064 197.591ZM213.072 322.05H382.217C381.055 324.232 380.143 326.567 379.522 329.017H215.767C215.146 326.567 214.234 324.232 213.072 322.05ZM130.347 159.39H343.721V193.254V306.52H209.042V306.69H194.259C191.464 305.868 188.507 305.424 185.449 305.424C182.391 305.424 179.435 305.868 176.639 306.69H161.856V306.52H130.347V159.39ZM109.96 327.062V324.005C110.384 323.362 112.365 322.05 115.512 322.05H157.826C156.664 324.232 155.752 326.567 155.131 329.017H115.512C112.364 329.017 110.383 327.705 109.96 327.062ZM185.449 352.61C176.674 352.61 169.536 345.472 169.536 336.697C169.536 327.923 176.675 320.784 185.449 320.784C187.624 320.784 189.698 321.224 191.588 322.017V322.05H191.666C197.36 324.476 201.362 330.128 201.362 336.697C201.362 345.472 194.224 352.61 185.449 352.61ZM409.841 352.61C401.066 352.61 393.927 345.472 393.927 336.697C393.927 327.923 401.066 320.784 409.841 320.784C418.615 320.784 425.754 327.923 425.754 336.697C425.754 345.472 418.615 352.61 409.841 352.61ZM475.276 327.062C474.852 327.705 472.871 329.017 469.724 329.017H440.158C439.538 326.567 438.626 324.232 437.464 322.05H458.363C458.499 322.051 458.652 322.053 458.82 322.053C458.942 322.053 459.072 322.052 459.209 322.05H469.724C472.871 322.05 474.852 323.362 475.276 324.005L475.276 327.062Z" fill="black"/>
</svg>
