<svg width="512" height="512" viewBox="0 0 512 512" fill="none" xmlns="http://www.w3.org/2000/svg">
<path d="M349.6 64C313.2 64 278.882 80.742 256 107.947C233.117 80.742 198.8 64 162.4 64C97.918 64 48 114.221 48 179.095C48 258.611 118.718 322.443 225.836 420.789L256 448L286.164 420.789C393.281 322.442 464 258.61 464 179.095C464 114.221 414.082 64 349.6 64ZM268.836 393.257L264.617 397.13L256 404.903L247.384 397.131L243.17 393.262C192.752 346.98 149.209 307.008 120.424 271.268C92.467 236.555 80 208.128 80 179.095C80 156.23 88.422 135.164 103.715 119.779C118.957 104.445 139.798 96 162.4 96C188.534 96 214.37 108.167 231.51 128.545L256 157.661L280.489 128.545C297.63 108.167 323.465 96 349.6 96C372.203 96 393.043 104.445 408.286 119.778C423.578 135.164 432 156.229 432 179.095C432 208.128 419.533 236.554 391.578 271.266C362.794 307.006 319.253 346.975 268.836 393.257Z" fill="black"/>
</svg>
