<svg width="339" height="470" viewBox="0 0 339 470" fill="none" xmlns="http://www.w3.org/2000/svg">
<path fill-rule="evenodd" clip-rule="evenodd" d="M72.666 116C72.666 104.217 82.2169 94.6665 93.9993 94.6665H221.999C233.782 94.6665 243.333 104.217 243.333 116C243.333 127.782 233.782 137.333 221.999 137.333H189.249C193.069 143.936 196.029 151.099 197.978 158.667H221.999C233.782 158.667 243.333 168.217 243.333 180C243.333 191.782 233.782 201.333 221.999 201.333H197.978C189.921 232.635 164.551 256.985 132.684 263.568L197.083 360.166C203.619 369.97 200.97 383.215 191.166 389.75C181.363 396.286 168.118 393.637 161.582 383.833L76.2489 255.833C71.8852 249.287 71.4777 240.87 75.1908 233.934C78.9028 226.997 86.1316 222.667 93.9993 222.667H115.333C131.126 222.667 144.915 214.086 152.292 201.333H93.9993C82.2169 201.333 72.666 191.782 72.666 180C72.666 168.217 82.2169 158.667 93.9993 158.667H152.292C144.915 145.913 131.126 137.333 115.333 137.333H93.9993C82.2169 137.333 72.666 127.782 72.666 116Z" fill="#333333"/>
</svg>
